<svg width="25" height="36" viewBox="0 0 25 36" fill="none" xmlns="http://www.w3.org/2000/svg">
<path d="M11.3781 0.899998V24.35C11.3781 26.3167 11.1948 28 10.8281 29.4C10.4948 30.7667 9.79479 31.8667 8.72813 32.7C7.96146 33.3 6.96146 33.8833 5.72813 34.45C4.52813 34.9833 2.92813 35.3833 0.928125 35.65L0.378125 32.1C1.94479 31.8333 3.17813 31.5 4.07813 31.1C5.01146 30.6667 5.69479 30.15 6.12813 29.55C6.59479 28.95 6.87813 28.2167 6.97813 27.35C7.11146 26.4833 7.17813 25.4667 7.17813 24.3V0.899998H11.3781ZM18.1379 32.05C18.1379 31.25 18.4212 30.5667 18.9879 30C19.5546 29.4 20.2546 29.1 21.0879 29.1C21.9546 29.1 22.6879 29.4 23.2879 30C23.8879 30.5667 24.1879 31.25 24.1879 32.05C24.1879 32.8833 23.8879 33.5833 23.2879 34.15C22.6879 34.7167 21.9546 35 21.0879 35C20.2546 35 19.5546 34.7167 18.9879 34.15C18.4212 33.5833 18.1379 32.8833 18.1379 32.05Z" fill="black"/>
<path d="M11.3781 0.899998H12.3781V-0.100002H11.3781V0.899998ZM10.8281 29.4L9.86075 29.1466L9.85861 29.1548L9.8566 29.163L10.8281 29.4ZM8.72813 32.7L8.11248 31.912L8.11182 31.9125L8.72813 32.7ZM5.72813 34.45L6.1343 35.3639L6.14563 35.3587L5.72813 34.45ZM0.928125 35.65L-0.0600852 35.8031L0.0898126 36.7706L1.06029 36.6412L0.928125 35.65ZM0.378125 32.1L0.210326 31.1142L-0.760925 31.2795L-0.610085 32.2531L0.378125 32.1ZM4.07813 31.1L4.48426 32.0138L4.49178 32.0105L4.49924 32.007L4.07813 31.1ZM6.12813 29.55L5.33877 28.9361L5.32786 28.9501L5.31745 28.9645L6.12813 29.55ZM6.97813 27.35L5.98975 27.1979L5.98688 27.2166L5.98472 27.2354L6.97813 27.35ZM7.17813 0.899998V-0.100002H6.17813V0.899998H7.17813ZM10.3781 0.899998V24.35H12.3781V0.899998H10.3781ZM10.3781 24.35C10.3781 26.2595 10.1996 27.8529 9.86075 29.1466L11.7955 29.6534C12.19 28.1471 12.3781 26.3738 12.3781 24.35H10.3781ZM9.8566 29.163C9.5743 30.3205 8.99457 31.2228 8.11248 31.912L9.34377 33.488C10.595 32.5105 11.4153 31.2128 11.7996 29.637L9.8566 29.163ZM8.11182 31.9125C7.42519 32.4499 6.49867 32.9955 5.31063 33.5413L6.14563 35.3587C7.42425 34.7712 8.49772 34.1501 9.34443 33.4875L8.11182 31.9125ZM5.32199 33.5362C4.24262 34.0159 2.7463 34.3987 0.795961 34.6588L1.06029 36.6412C3.10995 36.3679 4.81363 35.9508 6.13426 35.3638L5.32199 33.5362ZM1.91634 35.4969L1.36634 31.9469L-0.610085 32.2531L-0.0600852 35.8031L1.91634 35.4969ZM0.545924 33.0858C2.15115 32.8126 3.47622 32.4618 4.48426 32.0138L3.67199 30.1862C2.88003 30.5382 1.73844 30.8541 0.210326 31.1142L0.545924 33.0858ZM4.49924 32.007C5.53023 31.5283 6.37371 30.9179 6.9388 30.1355L5.31745 28.9645C5.01587 29.3821 4.49269 29.805 3.65701 30.193L4.49924 32.007ZM6.91748 30.1639C7.51243 29.399 7.8537 28.4859 7.97153 27.4646L5.98472 27.2354C5.90255 27.9475 5.67716 28.501 5.33877 28.9361L6.91748 30.1639ZM7.9665 27.5021C8.10962 26.5718 8.17813 25.502 8.17813 24.3H6.17813C6.17813 25.4313 6.1133 26.3949 5.98975 27.1979L7.9665 27.5021ZM8.17813 24.3V0.899998H6.17813V24.3H8.17813ZM7.17813 1.9H11.3781V-0.100002H7.17813V1.9ZM18.9879 30L19.695 30.7071L19.7051 30.697L19.7149 30.6866L18.9879 30ZM23.2879 30L22.5808 30.7071L22.5909 30.7172L22.6013 30.727L23.2879 30ZM23.2879 34.15L23.9745 34.877L23.9745 34.877L23.2879 34.15ZM18.9879 34.15L19.695 33.4429L19.695 33.4429L18.9879 34.15ZM19.1379 32.05C19.1379 31.5157 19.3155 31.0866 19.695 30.7071L18.2808 29.2929C17.5269 30.0467 17.1379 30.9843 17.1379 32.05H19.1379ZM19.7149 30.6866C20.0906 30.2888 20.5266 30.1 21.0879 30.1V28.1C19.9825 28.1 19.0185 28.5112 18.2609 29.3134L19.7149 30.6866ZM21.0879 30.1C21.6957 30.1 22.1728 30.2991 22.5808 30.7071L23.995 29.2929C23.203 28.5009 22.2134 28.1 21.0879 28.1V30.1ZM22.6013 30.727C23.0084 31.1115 23.1879 31.5348 23.1879 32.05H25.1879C25.1879 30.9652 24.7674 30.0218 23.9745 29.273L22.6013 30.727ZM23.1879 32.05C23.1879 32.6112 22.999 33.0473 22.6013 33.423L23.9745 34.877C24.7767 34.1194 25.1879 33.1554 25.1879 32.05H23.1879ZM22.6013 33.423C22.1969 33.8049 21.7133 34 21.0879 34V36C22.1958 36 23.1789 35.6285 23.9745 34.877L22.6013 33.423ZM21.0879 34C20.508 34 20.0659 33.8138 19.695 33.4429L18.2808 34.8571C19.0432 35.6195 20.0011 36 21.0879 36V34ZM19.695 33.4429C19.324 33.0719 19.1379 32.6299 19.1379 32.05H17.1379C17.1379 33.1368 17.5184 34.0947 18.2808 34.8571L19.695 33.4429Z" fill="black"/>
</svg>
