<svg width="25" height="36" viewBox="0 0 25 36" fill="none" xmlns="http://www.w3.org/2000/svg">
<path d="M11.3781 0.899998V24.35C11.3781 26.3167 11.1948 28 10.8281 29.4C10.4948 30.7667 9.79479 31.8667 8.72813 32.7C7.96146 33.3 6.96146 33.8833 5.72813 34.45C4.52813 34.9833 2.92813 35.3833 0.928125 35.65L0.378125 32.1C1.94479 31.8333 3.17813 31.5 4.07813 31.1C5.01146 30.6667 5.69479 30.15 6.12813 29.55C6.59479 28.95 6.87813 28.2167 6.97813 27.35C7.11146 26.4833 7.17813 25.4667 7.17813 24.3V0.899998H11.3781ZM18.1379 32.05C18.1379 31.25 18.4212 30.5667 18.9879 30C19.5546 29.4 20.2546 29.1 21.0879 29.1C21.9546 29.1 22.6879 29.4 23.2879 30C23.8879 30.5667 24.1879 31.25 24.1879 32.05C24.1879 32.8833 23.8879 33.5833 23.2879 34.15C22.6879 34.7167 21.9546 35 21.0879 35C20.2546 35 19.5546 34.7167 18.9879 34.15C18.4212 33.5833 18.1379 32.8833 18.1379 32.05Z" fill="url(#paint0_linear_8385_3)"/>
<defs>
<linearGradient id="paint0_linear_8385_3" x1="13" y1="-12" x2="13" y2="48" gradientUnits="userSpaceOnUse">
<stop stop-color="#6440F1" stop-opacity="0.53"/>
<stop offset="0.617615" stop-color="#5D48B3" stop-opacity="0.820279"/>
<stop offset="1" stop-color="#3A0EED"/>
</linearGradient>
</defs>
</svg>
